<?xml version="1.0" encoding="UTF-8" standalone="no"?>
<svg
   xmlns:dc="http://purl.org/dc/elements/1.1/"
   xmlns:cc="http://creativecommons.org/ns#"
   xmlns:rdf="http://www.w3.org/1999/02/22-rdf-syntax-ns#"
   xmlns:svg="http://www.w3.org/2000/svg"
   xmlns="http://www.w3.org/2000/svg"
   xmlns:sodipodi="http://sodipodi.sourceforge.net/DTD/sodipodi-0.dtd"
   xmlns:inkscape="http://www.inkscape.org/namespaces/inkscape"
   width="700"
   height="700"
   version="1.1"
   id="svg4563"
   sodipodi:docname="image-not-available.svg"
   inkscape:version="0.92.1 r15371">
  <defs
     id="defs4567" />
  <sodipodi:namedview
     pagecolor="#ffffff"
     bordercolor="#666666"
     borderopacity="1"
     objecttolerance="10"
     gridtolerance="10"
     guidetolerance="10"
     inkscape:pageopacity="0"
     inkscape:pageshadow="2"
     inkscape:window-width="1920"
     inkscape:window-height="1016"
     id="namedview4565"
     showgrid="false"
     fit-margin-top="0"
     fit-margin-left="0"
     fit-margin-right="0"
     fit-margin-bottom="0"
     inkscape:zoom="0.78205015"
     inkscape:cx="361.66728"
     inkscape:cy="346.80721"
     inkscape:window-x="0"
     inkscape:window-y="27"
     inkscape:window-maximized="1"
     inkscape:current-layer="svg4563" />
  <title
     id="title4546">Image Not Available</title>
  <metadata
     id="metadata12390">image/svg+xmlOther map symbolsMohamed IbrahimPublic Domainclker.comother map symbols<rdf:RDF>
  <cc:Work
     rdf:about="">
    <dc:format>image/svg+xml</dc:format>
    <dc:type
       rdf:resource="http://purl.org/dc/dcmitype/StillImage" />
    <dc:title>Image Not Available</dc:title>
  </cc:Work>
</rdf:RDF>
</metadata>
  <path
     style="fill:#ececec;fill-rule:nonzero"
     inkscape:connector-curvature="0"
     d="m 263.08527,236.72703 h -20.26798 l -2.34401,7.307 h 24.30101 z"
     id="path2782" />
  <path
     style="fill:#ececec;fill-rule:nonzero"
     inkscape:connector-curvature="0"
     d="m 445.87628,232.83204 h -26.98999 l -4.79101,11.27099 h 36.15799 z"
     id="path2784" />
  <path
     style="fill:#ececec;fill-rule:nonzero"
     inkscape:connector-curvature="0"
     d="m 353.22229,240.20804 h -23.23203 v -11.237 h 23.23203 z m 21.302,-15.75201 h -65.595 l -13.51202,19.785 h 91.48202 z"
     id="path2786" />
  <rect
     style="opacity:0.55;fill:#ececec;stroke-width:0.98510635;stroke-dasharray:none"
     stroke-linejoin="null"
     stroke-linecap="null"
     x="69.671432"
     y="107.9144"
     width="807.63208"
     height="5.0868778"
     id="svg_2"
     transform="matrix(0.86134187,0.50802578,-0.53106409,0.84733165,0,0)" />
  <rect
     style="opacity:0.55;fill:#ececec;stroke-width:0.97948563;stroke-dasharray:none"
     stroke-linejoin="null"
     stroke-linecap="null"
     x="-292.52328"
     y="466.13464"
     width="807.56866"
     height="5.0454788"
     transform="matrix(0.86049562,-0.50945783,0.54152424,0.84068514,0,0)"
     id="svg_4" />
  <path
     style="fill:#ffffff;fill-rule:nonzero"
     inkscape:connector-curvature="0"
     d="m 291.01022,256.48206 c -7.53149,0 -13.6849,6.82062 -13.6849,15.20721 v 116.71384 c 0,8.3866 6.15341,15.19196 13.6849,15.19196 h 104.78556 c 7.53106,0 13.64248,-6.80536 13.64248,-15.19196 V 271.68927 c 0,-8.38659 -6.11142,-15.20721 -13.64248,-15.20721 z"
     id="path2778" />
  <path
     style="fill:#ececec;fill-rule:nonzero"
     inkscape:connector-curvature="0"
     d="m 398.34229,312.66303 c -0.93,-1.655 -2.10202,-3.20599 -3.37702,-4.68799 -6.92898,-8.34201 -17.30398,-13.82199 -28.98898,-13.82199 -11.72,0 -22.095,5.44598 -29.02301,13.75299 -1.276,1.51599 -2.448,3.06799 -3.44699,4.75699 -3.482,5.72101 -5.58402,12.34 -5.58402,19.509 0,20.957 17.02802,37.98502 38.05402,37.98502 20.923,0 37.94998,-17.02802 37.94998,-37.98502 0,-7.169 -2.06799,-13.78799 -5.58398,-19.509"
     id="path2790" />
  <path
     style="fill:#ececec;fill-rule:nonzero"
     inkscape:connector-curvature="0"
     d="m 419.95529,307.80204 c 3.37799,7.44601 5.37699,15.64898 5.37699,24.36999 0,32.78 -26.57599,59.39103 -59.35599,59.39103 -32.815,0 -59.39102,-26.61103 -59.39102,-59.39103 0,-8.721 1.96502,-16.92398 5.37802,-24.40399 H 205.93527 v 89.482 c 0,12.13299 9.82401,22.026 22.026,22.026 h 227.87601 c 12.168,0 22.095,-9.89301 22.095,-22.026 l 0.069,-89.448 z"
     id="path2788" />
  <path
     style="fill:#ececec;fill-rule:nonzero"
     inkscape:connector-curvature="0"
     d="m 365.97629,272.78205 c 21.647,0 40.432,11.78799 50.80798,29.16098 l 61.14801,0.069 v -32.78098 c 0,-12.20202 -9.927,-22.09402 -22.095,-22.09402 H 227.96127 c -12.20199,0 -22.026,9.892 -22.026,22.09402 l 0.069,32.50498 109.13001,0.069 c 10.444,-17.30399 29.16101,-29.02298 50.84201,-29.02298"
     id="path2780" />
</svg>
