<?xml version="1.0" encoding="UTF-8" standalone="no"?>
<!-- Created with Inkscape (http://www.inkscape.org/) -->

<svg
   xmlns:dc="http://purl.org/dc/elements/1.1/"
   xmlns:cc="http://creativecommons.org/ns#"
   xmlns:rdf="http://www.w3.org/1999/02/22-rdf-syntax-ns#"
   xmlns:svg="http://www.w3.org/2000/svg"
   xmlns="http://www.w3.org/2000/svg"
   xmlns:sodipodi="http://sodipodi.sourceforge.net/DTD/sodipodi-0.dtd"
   xmlns:inkscape="http://www.inkscape.org/namespaces/inkscape"
   width="123.20503mm"
   height="36.133797mm"
   viewBox="0 0 123.20503 36.133797"
   version="1.1"
   id="svg5979"
   inkscape:version="0.92.1 r15371"
   sodipodi:docname="logo.svg">
  <defs
     id="defs5973" />
  <sodipodi:namedview
     id="base"
     pagecolor="#ffffff"
     bordercolor="#666666"
     borderopacity="1.0"
     inkscape:pageopacity="0.0"
     inkscape:pageshadow="2"
     inkscape:zoom="0.35"
     inkscape:cx="-390.02874"
     inkscape:cy="73.998629"
     inkscape:document-units="mm"
     inkscape:current-layer="layer1"
     showgrid="false"
     fit-margin-top="0"
     fit-margin-left="0"
     fit-margin-right="0"
     fit-margin-bottom="0"
     inkscape:window-width="1920"
     inkscape:window-height="1016"
     inkscape:window-x="0"
     inkscape:window-y="27"
     inkscape:window-maximized="1" />
  <metadata
     id="metadata5976">
    <rdf:RDF>
      <cc:Work
         rdf:about="">
        <dc:format>image/svg+xml</dc:format>
        <dc:type
           rdf:resource="http://purl.org/dc/dcmitype/StillImage" />
        <dc:title></dc:title>
      </cc:Work>
    </rdf:RDF>
  </metadata>
  <g
     inkscape:label="Layer 1"
     inkscape:groupmode="layer"
     id="layer1"
     transform="translate(-54.814153,-132.27834)">
    <g
       id="g5000"
       transform="matrix(0.35277777,0,0,-0.35277777,58.187347,149.30989)">
      <path
         d="m 0,0 5.263,-3.332 c 0,0 -1.437,-2.533 -2.466,-6.233 l -5.709,-6.958 2.026,-0.696 c 0,0 -13.611,-16.966 -3.735,-27.348 8.483,4.621 14.497,6.014 14.497,6.014 0,0 19.561,-18.232 51.341,-10.319 0,28.487 -0.317,33.615 -0.317,33.615 0,0 -12.154,3.799 -17.662,6.837 -0.705,2.95 -0.336,2.551 3.336,5.906 1.266,3.925 3.311,3.147 3.311,3.147 0,0 21.081,-4.052 26.905,-0.95 5.824,3.102 8.99,8.357 8.99,8.357 l -3.229,0.127 c 0,0 -15.637,-7.027 -26.525,0.633 -10.889,7.66 -20.701,17.725 -31.4,7.28 3.229,-1.013 6.457,-1.899 6.457,-1.899 0,0 -10.888,1.835 -18.548,-5.255 L 14.94,8.23 Z"
         style="fill:#ffffff;fill-opacity:1;fill-rule:nonzero;stroke:none"
         id="path5002"
         inkscape:connector-curvature="0" />
    </g>
    <g
       id="g5004"
       transform="matrix(0.35277777,0,0,-0.35277777,77.565427,141.99525)">
      <path
         d="M 0,0 C -0.429,0.587 -0.334,1.086 -0.123,1.633 0.303,1.724 1.166,1.18 1.894,0.887 2.621,0.595 3.538,0.195 4.732,-0.347 2.75,-0.331 1.314,-0.433 0,0 m 30.82,-8.1 c -2.161,0.94 -4.322,1.877 -6.48,2.822 -4.361,1.911 -8.721,3.827 -13.009,5.709 -0.539,1.905 -1.755,3.07 -3.175,4.089 -2.988,2.146 -6.244,3.756 -9.692,5.022 -2.989,1.098 -6.107,1.692 -9.245,2.348 -1.511,4.385 -2.99,8.679 -4.546,13.194 -2.022,-2.92 -3.442,-5.85 -4.993,-8.89 -3.055,4.215 -6.173,7.988 -9.985,11.35 -2.503,-5.536 -3.873,-11.235 -6.131,-16.496 -5.999,-3.193 -11.308,-7.01 -15.367,-12.723 1.151,0.097 2.034,0.527 3.134,0.358 -3.547,-4.098 -6.364,-8.487 -8.295,-13.713 1.788,0.807 3.049,2.015 4.973,2.296 -2.419,-5.218 -4.519,-9.895 -5.087,-14.697 0.255,0.211 5.168,1.978 5.168,1.978 l -1.808,-5.061 c 0,0 2.805,1.896 3.548,2.249 0,0 0.94,1.572 1.827,3.156 0.887,1.585 1.76,4.072 1.76,4.072 l -6.664,-1.763 c 2.1,8.748 6.641,13.688 6.641,13.688 l -4.355,0.25 c 5.179,11.821 12.33,15.021 12.33,15.021 l 5.046,-1.71 1.25,6.314 6.021,-1.233 -2.73,6.011 -4.083,-3.136 3.655,10.984 c 0.002,-0.002 0.004,-0.005 0.006,-0.007 l 0.001,10e-4 c 5.54,-5.751 9.782,-12.134 13.818,-18.781 -0.267,1.744 -0.534,3.489 -0.826,5.403 C -9.514,9.789 -3.064,8.267 2.974,5.079 4.593,4.225 6.149,3.268 7.561,2.104 7.563,2.102 7.565,2.101 7.567,2.099 L 7.568,2.098 C 7.837,1.877 8.107,1.651 8.337,1.399 8.893,1.063 9.44,0.724 9.978,0.388 9.44,0.724 8.893,1.063 8.337,1.399 8.805,0.889 9.105,0.271 8.871,-0.636 7.669,-1.336 6.613,-0.738 5.609,-0.156 3.519,1.054 1.506,2.401 -0.616,3.552 -2.857,4.768 -5.213,5.708 -7.87,5.285 -8,5.264 -8.132,5.249 -8.259,5.212 -8.318,5.189 -8.377,5.163 -8.436,5.139 -8.577,5.065 -8.765,4.969 -8.868,4.759 -6.816,4.733 -5.054,4.22 -3.824,3.113 c 0.938,-0.84 1.599,-2.038 1.936,-3.655 0.177,-0.044 0.354,-0.088 0.532,-0.133 -0.178,0.045 -0.355,0.089 -0.532,0.133 0.008,-0.042 0.019,-0.08 0.028,-0.123 -1.994,-0.263 -4.097,-0.423 -6.05,-1.071 5.002,0.122 9.947,0.129 14.69,0.322 1.809,0.074 3.485,-0.107 5.15,-0.857 5.509,-2.484 11.058,-4.882 16.702,-7.362 v -0.002 c 0.002,-10e-4 0.005,-0.002 0.007,-0.003 -0.182,-0.501 -0.307,-0.992 -0.375,-1.478 -0.029,-0.202 -0.048,-0.404 -0.056,-0.605 v -0.005 c -0.026,-0.601 0.037,-1.196 0.189,-1.792 0.149,-1.277 -0.803,-1.894 -1.612,-2.52 -4.783,-3.701 -10.134,-5.156 -16.199,-4.423 -8.353,1.011 -25.511,1.588 -25.683,1.563 3.374,-1.244 6.607,-2.233 6.61,-2.234 -2.582,-1.442 -5.04,-4.387 -5.986,-5.725 1.34,-0.777 2.517,-1.282 4.061,-2.097 1.62,4.476 6.244,7.415 6.244,7.415 0,0 7.914,-0.391 12.101,-0.828 4.811,-0.503 9.584,-1.07 14.256,0.991 3.982,1.756 7.372,4.198 10.059,7.58 1.991,2.508 1.449,4.445 -1.428,5.696"
         style="fill:#2c2a2a;fill-opacity:1;fill-rule:nonzero;stroke:none"
         id="path5006"
         inkscape:connector-curvature="0" />
    </g>
    <g
       id="g5008"
       transform="matrix(0.35277777,0,0,-0.35277777,74.589247,140.18222)">
      <path
         d="M 0,0 C 0.059,0.024 0.118,0.05 0.177,0.073 0.116,0.055 0.058,0.03 0,0"
         style="fill:#151412;fill-opacity:1;fill-rule:nonzero;stroke:none"
         id="path5010"
         inkscape:connector-curvature="0" />
    </g>
    <g
       id="g5012"
       transform="matrix(0.35277777,0,0,-0.35277777,67.291937,135.07083)">
      <path
         d="m 0,0 -2.482,-2.644 2.091,6.258 0.04,0.146 -3.654,-10.983 4.082,3.135 2.73,-6.011 -6.02,1.234 -1.251,-6.314 -5.045,1.71 c 0,0 -7.151,-3.2 -12.331,-15.021 l 4.356,-0.251 c 0,0 -4.542,-4.939 -6.642,-13.688 l 3.86,1.021 2.805,0.743 -3.657,-6.949 4.179,1.997 c 0,0 1.305,4.27 3.909,7.557 0,0 -4.262,-1 -8.487,-2.372 -0.005,-0.002 0.004,0.01 0.006,0.015 -0.004,-0.003 -0.008,-0.006 -0.013,-0.009 2.521,6.411 5.609,11.985 10.863,16.565 -3.289,-0.761 -5.996,-2.003 -8.996,-3.709 2.753,4.675 6.002,8.348 10.111,11.323 2.485,-0.541 4.95,-1.078 7.593,-1.654 0.207,2.3 0.041,4.546 0.525,6.911 2.382,-0.598 4.445,-1.81 6.894,-3.088 C 4.064,-9.028 2.176,-4.491 0,0"
         style="fill:#d7851d;fill-opacity:1;fill-rule:nonzero;stroke:none"
         id="path5014"
         inkscape:connector-curvature="0" />
    </g>
    <g
       id="g5016"
       transform="matrix(0.35277777,0,0,-0.35277777,77.401987,141.37038)">
      <path
         d="M 0,0 C -0.211,-0.547 0.035,-1.52 0.589,-1.909 2.263,-2.286 3.213,-2.103 5.195,-2.118 4.001,-1.576 3.497,-1.341 2.769,-1.049 2.042,-0.756 0.955,-0.024 0,0"
         style="fill:#fdfbf9;fill-opacity:1;fill-rule:nonzero;stroke:none"
         id="path5018"
         inkscape:connector-curvature="0" />
    </g>
    <g
       id="g5020"
       transform="matrix(0.35277777,0,0,-0.35277777,71.756517,138.46762)">
      <path
         d="m 0,0 c 6.959,-0.217 13.409,-1.739 19.447,-4.926 1.618,-0.854 3.174,-1.81 4.586,-2.974 -0.002,0.001 -0.004,0.003 -0.005,0.005 -1.413,1.164 -2.969,2.121 -4.588,2.975 C 13.402,-1.733 6.952,-0.211 -0.007,0.006 0.286,-1.909 0.552,-3.653 0.819,-5.397 0.822,-5.402 0.824,-5.406 0.827,-5.411 0.56,-3.664 0.293,-1.917 0,0"
         style="fill:#ffffff;fill-opacity:1;fill-rule:nonzero;stroke:none"
         id="path5022"
         inkscape:connector-curvature="0" />
    </g>
    <g
       id="g5024"
       transform="matrix(0.35277777,0,0,-0.35277777,81.773927,142.79645)">
      <path
         d="m 0,0 c -0.998,0.45 -2.003,0.594 -3.024,0.727 -0.682,0.088 -1.363,0.108 -2.127,0.027 -4.72,-0.5 -9.473,-0.102 -14.476,-0.224 -0.007,-0.002 -0.014,-0.004 -0.021,-0.006 5.012,0.122 9.77,0.186 14.521,0.38 1.809,0.074 3.47,-0.159 5.134,-0.91 5.507,-2.483 11.053,-4.879 16.695,-7.358 v 0.002 C 11.058,-4.882 5.51,-2.484 0,0"
         style="fill:#ffffff;fill-opacity:1;fill-rule:nonzero;stroke:none"
         id="path5026"
         inkscape:connector-curvature="0" />
    </g>
    <g
       id="g5028"
       transform="matrix(0.35277777,0,0,-0.35277777,76.216547,140.89691)">
      <path
         d="M 0,0 C -1.23,1.106 -2.933,1.598 -4.985,1.624 -4.986,1.622 -4.987,1.62 -4.988,1.618 -2.935,1.594 -1.232,1.104 0,0"
         style="fill:#ffffff;fill-opacity:1;fill-rule:nonzero;stroke:none"
         id="path5030"
         inkscape:connector-curvature="0" />
    </g>
    <g
       id="g5032"
       transform="matrix(0.35277777,0,0,-0.35277777,67.170507,133.74667)">
      <path
         d="M 0,0 C -0.002,0.002 -0.004,0.005 -0.007,0.007 L -0.047,-0.14 Z"
         style="fill:#ffffff;fill-opacity:1;fill-rule:nonzero;stroke:none"
         id="path5034"
         inkscape:connector-curvature="0" />
    </g>
    <g
       id="g5036"
       transform="matrix(0.35277777,0,0,-0.35277777,59.698817,149.33233)">
      <path
         d="M 0,0 C 0.005,0.003 0.008,0.006 0.013,0.009 2.535,6.419 5.624,11.991 10.882,16.57 10.876,16.569 10.87,16.567 10.863,16.566 5.608,11.985 2.521,6.412 0,0"
         style="fill:#ffffff;fill-opacity:1;fill-rule:nonzero;stroke:none"
         id="path5038"
         inkscape:connector-curvature="0" />
    </g>
    <g
       id="g5040"
       transform="matrix(0.35277777,0,0,-0.35277777,67.292927,135.0697)">
      <path
         d="m 0,0 -0.003,-0.003 c 2.176,-4.491 4.064,-9.028 5.466,-14.078 -2.448,1.278 -4.511,2.49 -6.894,3.087 -0.484,-2.364 -0.318,-4.61 -0.524,-6.91 -2.644,0.576 -5.108,1.113 -7.594,1.654 -4.105,-2.972 -7.351,-6.641 -10.102,-11.308 0.005,0.003 0.01,0.006 0.016,0.009 2.749,4.66 5.993,8.325 10.093,11.294 2.486,-0.542 4.95,-1.079 7.594,-1.655 0.206,2.3 0.04,4.546 0.524,6.911 2.383,-0.598 4.446,-1.81 6.894,-3.088 C 4.067,-9.033 2.177,-4.494 0,0"
         style="fill:#ffffff;fill-opacity:1;fill-rule:nonzero;stroke:none"
         id="path5042"
         inkscape:connector-curvature="0" />
    </g>
    <g
       id="g5044"
       transform="matrix(0.35277777,0,0,-0.35277777,80.506637,141.50158)">
      <path
         d="M 0,0 C -0.23,0.252 -0.501,0.478 -0.769,0.699 L -0.77,0.7 c -1.413,1.164 -2.968,2.12 -4.586,2.974 -6.039,3.188 -12.552,4.789 -19.511,5.005 0.293,-1.917 0.857,-5.415 0.855,-5.411 -4.035,6.647 -8.25,12.965 -13.791,18.716 v -0.002 l -0.047,-0.139 -2.091,-6.259 2.482,2.645 0.003,0.003 c 1.825,-3.93 4.013,-8.962 5.416,-14.016 -2.449,1.278 -4.484,2.462 -6.867,3.059 -0.484,-2.364 -0.426,-4.346 -0.524,-6.918 -2.643,0.576 -5.086,1.14 -7.572,1.681 -4.111,-2.976 -7.359,-6.696 -10.113,-11.375 0.002,-10e-4 0.002,-10e-4 0.003,-0.002 2.999,1.704 5.705,2.947 8.993,3.707 0.007,0.002 -0.048,-0.032 -0.042,-0.031 -5.258,-4.579 -8.298,-10.104 -10.819,-16.514 -0.002,-0.005 0.007,-0.021 0.005,-0.026 0.044,0.031 0.097,0.072 0.153,0.117 3.263,3.867 5.63,6.575 9.815,7.97 -0.708,0.708 -1.121,0.856 -2.125,0.354 4.959,3.896 10.98,6.375 17.355,6.021 -1.062,2.125 -3.188,1.417 -4.958,1.417 6.471,7.816 16.297,7.437 28.51,4.383 -0.336,1.616 -0.976,2.908 -1.928,3.731 -2.066,1.785 -4.959,1.593 -4.958,1.595 0.043,0.144 0.198,0.295 0.516,0.428 C -10.987,5.974 -5.137,3.11 0,0"
         style="fill:#d2642b;fill-opacity:1;fill-rule:nonzero;stroke:none"
         id="path5046"
         inkscape:connector-curvature="0" />
    </g>
    <g
       id="g5048"
       transform="matrix(0.35277777,0,0,-0.35277777,74.651867,140.15647)">
      <path
         d="m 0,0 c 0.127,0.036 0.259,0.052 0.389,0.073 2.657,0.423 5.013,-0.518 7.254,-1.734 2.122,-1.15 4.135,-2.497 6.225,-3.708 1.004,-0.581 2.059,-1.18 3.262,-0.48 0.234,0.908 -0.066,1.525 -0.534,2.036 C 11.46,-0.703 5.609,2.161 0,0"
         style="fill:#cd5029;fill-opacity:1;fill-rule:nonzero;stroke:none"
         id="path5050"
         inkscape:connector-curvature="0" />
    </g>
    <g
       id="g5052"
       transform="matrix(0.35277777,0,0,-0.35277777,87.516507,146.13002)">
      <path
         d="M 0,0 C 0.009,0.201 0.027,0.402 0.056,0.605 0.124,1.091 0.25,1.582 0.432,2.082 0.429,2.084 0.426,2.085 0.424,2.086 c -5.642,2.478 -11.188,4.875 -16.695,7.358 -1.006,0.453 -2.01,0.718 -3.046,0.84 -0.679,0.08 -1.372,0.099 -2.088,0.069 -4.752,-0.193 -14.513,-0.334 -14.506,-0.331 2.1,0.697 4.084,0.681 5.843,1.034 -0.008,0.042 -0.019,0.081 -0.028,0.123 -13.503,4.837 -25.682,1.274 -28.511,-4.383 6.206,6.564 16.701,5.1 22.668,-0.354 8.768,-8.016 23.801,-20.438 36.128,-8.24 0,0.003 -0.189,1.79 -0.189,1.792 z"
         style="fill:#cd5029;fill-opacity:1;fill-rule:nonzero;stroke:none"
         id="path5054"
         inkscape:connector-curvature="0" />
    </g>
    <g
       id="g5056"
       transform="matrix(0.35277777,0,0,-0.35277777,74.837957,143.8576)">
      <path
         d="m 0,0 c -6.018,5.398 -16.292,7.084 -22.668,0.354 1.86,-0.443 2.056,-0.427 4.959,-1.417 -6.376,0.355 -12.397,-2.125 -17.355,-6.021 1.18,-0.15 0.976,-0.081 1.832,-0.285 -4.185,-1.395 -7.293,-4.614 -9.522,-8.039 0.015,0.013 0.03,0.024 0.047,0.038 0.63,0.515 1.831,1.704 1.998,1.82 0,0 6.251,5.441 10.609,6.585 l -2.822,0.483 c 6.276,3.87 12.775,5.301 20.202,4.687 -2.262,1.55 -4.514,2.004 -6.679,2.822 4.137,2.153 11.886,1.197 16.599,-2.053 2.181,-1.504 4.319,-3.067 6.626,-4.381 5.607,-3.195 12.213,-7.088 18.713,-7.897 5.062,-0.629 10.034,1.356 13.576,5.088 C 33.439,-10.503 22.3,-20.004 0,0"
         style="fill:#c83234;fill-opacity:1;fill-rule:nonzero;stroke:none"
         id="path5058"
         inkscape:connector-curvature="0" />
    </g>
    <g
       id="g5060"
       transform="matrix(0.35277777,0,0,-0.35277777,87.360867,146.93982)">
      <path
         d="M 0,0 C 0.415,0.302 0.63,0.498 0.63,0.498 0.422,0.324 0.211,0.161 0,0"
         style="fill:#c83234;fill-opacity:1;fill-rule:nonzero;stroke:none"
         id="path5062"
         inkscape:connector-curvature="0" />
    </g>
    <g
       id="g5064"
       transform="matrix(0.35277777,0,0,-0.35277777,72.849277,164.44666)">
      <path
         d="M 0,0 C 0.861,0.057 1.75,0.132 2.678,0.234 1.75,0.132 0.861,0.057 0,0"
         style="fill:#110f0d;fill-opacity:1;fill-rule:nonzero;stroke:none"
         id="path5066"
         inkscape:connector-curvature="0" />
    </g>
    <g
       id="g5068"
       transform="matrix(0.35277777,0,0,-0.35277777,67.744547,162.45054)">
      <path
         d="M 0,0 C 0.035,0.067 0.051,0.11 0.051,0.11 0.03,0.129 0.009,0.147 -0.012,0.166 0.009,0.147 0.03,0.129 0.051,0.11 0.051,0.11 0.035,0.067 0,0"
         style="fill:#110f0d;fill-opacity:1;fill-rule:nonzero;stroke:none"
         id="path5070"
         inkscape:connector-curvature="0" />
    </g>
    <g
       id="g5072"
       transform="matrix(0.35277777,0,0,-0.35277777,56.939147,162.70056)">
      <path
         d="M 0,0 C 0,0 0.016,0.01 0.042,0.025 0.036,0.059 0.03,0.092 0.024,0.126 0.016,0.083 0.008,0.043 0,0"
         style="fill:#110f0d;fill-opacity:1;fill-rule:nonzero;stroke:none"
         id="path5074"
         inkscape:connector-curvature="0" />
    </g>
    <g
       id="g5076"
       transform="matrix(0.35277777,0,0,-0.35277777,80.307107,167.18694)">
      <path
         d="m 0,0 0.49,3.583 c 0,0 -23.261,-8.907 -48.464,6.092 -0.693,0.413 -1.386,0.834 -2.082,1.283 l 5.894,3.062 c 0,0 -7.864,2.543 -22.823,-6.746 0,0 -9.227,12.588 6.905,27.108 l -4.031,0.552 c 1.991,2.396 13.058,14.207 33.674,9.359 l -2.193,3.973 c 0,0 25.52,-16.468 41.326,-14.735 l -0.132,0.058 -8.866,4.199 c 0,0 13.409,-5.364 20.684,7.784 0,0 0.126,-0.213 0.338,-0.609 C 23.263,40.221 38.301,9.075 0,0 m 27.427,34.484 c -1.282,5.626 -3.483,10.079 -4.369,11.732 -0.246,0.459 -0.393,0.706 -0.393,0.706 L 20.299,50.901 20.193,50.71 18.061,46.856 C 14.577,40.559 8.956,38.743 4.599,38.743 c -0.718,0 -1.402,0.049 -2.036,0.136 -1.656,0.227 -9.219,2.489 -9.219,2.489 l 5.869,-5.466 c -14.07,3.063 -30.23,14.48 -30.405,14.593 l -8.848,5.704 4.605,-8.341 c -1.656,0.188 -3.246,0.275 -4.765,0.275 -15.541,10e-4 -23.935,-9.059 -25.603,-11.066 -0.293,-0.353 -0.446,-0.563 -0.446,-0.563 l -2.615,-3.596 3.203,-0.439 c -5.759,-6.743 -6.82,-12.947 -6.569,-17.241 0.332,-5.678 2.993,-9.368 3.106,-9.522 l 1.452,-1.981 2.086,1.296 c 4.542,2.82 8.359,4.475 11.425,5.43 l 2.666,-1.721 c 0.63,-0.406 1.297,-0.818 2.165,-1.334 7.542,-4.488 15.653,-7.351 24.107,-8.509 3.049,-0.417 5.931,-0.585 8.591,-0.585 5.931,0 10.766,0.834 13.94,1.593 l -0.46,-3.368 3.763,0.892 c 13.056,3.093 21.64,9.025 25.513,17.629 2.526,5.61 2.964,12.149 1.303,19.436"
         style="fill:#2c2a2a;fill-opacity:1;fill-rule:nonzero;stroke:none"
         id="path5078"
         inkscape:connector-curvature="0" />
    </g>
    <g
       id="g5080"
       transform="matrix(0.35277777,0,0,-0.35277777,83.328117,155.33759)">
      <path
         d="M 0,0 0.133,-0.058 C -15.674,-1.791 -41.194,14.678 -41.194,14.678 L -39,10.704 c -20.617,4.848 -31.684,-6.962 -33.675,-9.359 0,0 25.924,18.877 51.832,-1.316 l -10.3,1.41 c 0.449,-0.261 0.894,-0.538 1.333,-0.829 0.66,-0.436 1.308,-0.901 1.94,-1.386 0.421,-0.323 0.835,-0.655 1.24,-0.993 0.609,-0.506 1.198,-1.025 1.765,-1.546 1.132,-1.043 2.173,-2.094 3.087,-3.072 0.124,-0.133 0.245,-0.264 0.364,-0.393 1.667,-1.814 2.864,-3.323 3.359,-3.967 0.036,-0.046 0.068,-0.087 0.096,-0.124 0.104,-0.136 0.158,-0.21 0.158,-0.21 5.897,-0.21 10.794,1.435 14.648,3.629 0.336,0.191 0.663,0.386 0.982,0.584 0.319,0.198 0.631,0.399 0.934,0.603 0.304,0.204 0.599,0.411 0.887,0.618 0.287,0.208 0.567,0.418 0.839,0.628 0.407,0.315 0.796,0.632 1.168,0.948 0.247,0.21 0.487,0.42 0.718,0.628 0.231,0.209 0.455,0.416 0.67,0.62 0.215,0.205 0.422,0.408 0.622,0.607 1.194,1.195 2.095,2.277 2.699,3.06 0.1,0.131 0.192,0.253 0.276,0.366 0.42,0.565 0.631,0.902 0.631,0.902 C 4.936,0.545 2.431,-0.019 0,0"
         style="fill:#d7851d;fill-opacity:1;fill-rule:nonzero;stroke:none"
         id="path5082"
         inkscape:connector-curvature="0" />
    </g>
    <g
       id="g5084"
       transform="matrix(0.35277777,0,0,-0.35277777,87.616667,151.32496)">
      <path
         d="m 0,0 c -0.292,-9.412 -1.922,-26.21 -9.679,-30.962 0,0 3.182,3.859 -1.008,9.907 0,0 -0.15,-0.716 -0.259,-1.61 -0.676,-2.468 -3.485,-7.772 -8.483,-11.606 -7.697,-5.905 -21.865,-10.039 -49.265,-1.017 25.203,-14.999 48.464,-6.092 48.464,-6.092 l -0.49,-3.583 C 17.581,-35.888 2.543,-4.742 0,0"
         style="fill:#cd5029;fill-opacity:1;fill-rule:nonzero;stroke:none"
         id="path5086"
         inkscape:connector-curvature="0" />
    </g>
    <g
       id="g5088"
       transform="matrix(0.35277777,0,0,-0.35277777,57.690137,154.86293)">
      <path
         d="m 0,0 4.031,-0.552 c -16.132,-14.521 -6.905,-27.108 -6.905,-27.108 14.959,9.289 22.823,6.746 22.823,6.746 l -5.894,-3.062 c 0.696,-0.449 1.39,-0.87 2.083,-1.283 42.578,-16.917 57.174,6.357 58.062,13.995 -7.968,-12.922 -25.54,-18.946 -40.305,-15.671 -0.687,0.092 -1.341,0.198 -1.953,0.317 -0.225,0.044 -0.445,0.09 -0.66,0.137 -1.433,0.313 -2.647,0.689 -3.662,1.078 -0.38,0.146 -0.733,0.293 -1.059,0.439 -0.021,0.01 -0.039,0.019 -0.059,0.028 -1.914,0.868 -2.884,1.696 -3.123,1.916 -0.005,0.004 -0.007,0.006 -0.011,0.01 -0.031,0.029 -0.049,0.047 -0.049,0.047 2.204,1.134 5.19,1.602 5.169,1.62 -11.765,10.633 -30.325,-2.002 -30.325,-2.002 -0.098,0.389 -0.178,0.773 -0.249,1.154 -0.027,-0.016 -0.043,-0.026 -0.043,-0.026 0.008,0.043 0.016,0.083 0.024,0.126 -1.782,9.784 6.703,20.098 12.86,22.535 C 5.466,1.778 0,0 0,0"
         style="fill:#c83234;fill-opacity:1;fill-rule:nonzero;stroke:none"
         id="path5090"
         inkscape:connector-curvature="0" />
    </g>
    <g
       id="g5092"
       transform="matrix(0.35277777,0,0,-0.35277777,87.497387,151.11015)">
      <path
         d="m 0,0 c -7.275,-13.148 -20.684,-7.784 -20.684,-7.784 l 8.866,-4.199 c 2.43,-0.019 4.935,0.544 7.273,2.111 0,0 -0.212,-0.336 -0.631,-0.901 -0.084,-0.113 -0.176,-0.235 -0.277,-0.366 -0.603,-0.783 -1.505,-1.865 -2.699,-3.061 -0.199,-0.199 -0.406,-0.401 -0.621,-0.606 -0.216,-0.204 -0.439,-0.411 -0.67,-0.62 -0.232,-0.208 -0.471,-0.418 -0.719,-0.629 -0.371,-0.315 -0.76,-0.632 -1.168,-0.947 -0.271,-0.211 -0.551,-0.42 -0.839,-0.628 -0.287,-0.208 -0.583,-0.414 -0.886,-0.618 -0.304,-0.204 -0.615,-0.405 -0.934,-0.604 -0.32,-0.198 -0.647,-0.393 -0.982,-0.583 -3.854,-2.194 -8.751,-3.839 -14.649,-3.629 -3.319,0.118 -6.954,0.824 -10.9,2.351 0.383,-0.299 0.763,-0.614 1.139,-0.939 0.299,-0.258 0.594,-0.522 0.886,-0.792 0.22,-0.203 0.438,-0.408 0.653,-0.616 0.192,-0.185 0.382,-0.371 0.569,-0.559 1.031,-1.032 1.995,-2.094 2.849,-3.089 0.961,-1.118 1.783,-2.152 2.404,-2.961 0.088,-0.115 0.173,-0.226 0.253,-0.332 0.642,-0.848 1.01,-1.376 1.01,-1.376 l -17.203,0.986 c 0.692,-0.779 1.353,-1.475 1.981,-2.098 0.314,-0.311 0.619,-0.604 0.915,-0.879 0.445,-0.413 0.87,-0.786 1.274,-1.124 0.269,-0.225 0.529,-0.434 0.779,-0.629 2.624,-2.041 4.166,-2.449 4.166,-2.449 -0.927,-0.102 -1.816,-0.177 -2.677,-0.234 -0.192,-0.013 -0.383,-0.025 -0.572,-0.036 -0.783,-0.044 -1.538,-0.07 -2.266,-0.08 -2.269,-0.031 -4.275,0.091 -6.032,0.317 -0.071,0.009 -0.136,0.02 -0.206,0.03 31.919,-7.438 40.306,15.713 40.306,15.713 3.896,-6.158 0.952,-9.711 0.952,-9.711 7.756,4.752 9.386,21.55 9.678,30.962 C 0.126,-0.213 0,0 0,0"
         style="fill:#d2642b;fill-opacity:1;fill-rule:nonzero;stroke:none"
         id="path5094"
         inkscape:connector-curvature="0" />
    </g>
    <g
       id="g5096"
       transform="matrix(0.35277777,0,0,-0.35277777,98.065337,159.37347)">
      <path
         d="m 0,0 c -5.036,0 -8.645,1.132 -10.726,3.365 -2.1,2.25 -3.164,5.834 -3.164,10.655 v 4.204 h 9.578 v -3.781 c 0,-4.854 1.956,-5.873 3.597,-5.873 1.113,0 2.044,0.457 2.692,1.322 0.601,0.801 0.904,1.84 0.904,3.088 0,1.49 -0.211,2.779 -0.629,3.83 -0.416,1.044 -1.05,2.044 -1.884,2.973 -0.8,0.891 -2.065,2.079 -3.864,3.636 l -4.843,4.193 c -3.685,3.172 -5.551,6.778 -5.551,10.721 0,4.326 1.095,7.566 3.258,9.628 2.173,2.074 5.237,3.125 9.104,3.125 h 2.015 c 0.976,0 2.272,-0.234 3.852,-0.697 1.54,-0.451 2.928,-1.21 4.126,-2.258 1.174,-1.027 2.073,-2.494 2.671,-4.359 0.555,-1.731 0.866,-3.846 0.924,-6.295 H 2.182 l -0.048,2.272 c -0.031,0.83 -0.373,1.554 -1.016,2.168 -0.642,0.613 -1.379,0.923 -2.191,0.923 -0.972,0 -1.815,-0.308 -2.506,-0.915 -0.713,-0.626 -1.09,-1.475 -1.09,-2.454 0,-1.767 1.157,-3.561 3.538,-5.485 l 6.925,-5.591 c 1.086,-0.877 2.04,-1.779 2.836,-2.679 0.785,-0.886 1.413,-1.769 1.866,-2.627 0.472,-0.891 0.859,-1.706 1.149,-2.422 0.275,-0.676 0.469,-1.426 0.578,-2.229 0.115,-0.846 0.185,-1.488 0.205,-1.909 0.021,-0.433 0.032,-0.998 0.032,-1.697 0,-1.766 -0.116,-3.387 -0.347,-4.818 C 11.887,8.608 11.482,7.236 10.908,5.934 10.352,4.673 9.616,3.609 8.721,2.773 7.829,1.94 6.642,1.264 5.194,0.765 3.722,0.257 1.973,0 0,0"
         style="fill:#2c2a2a;fill-opacity:1;fill-rule:nonzero;stroke:none"
         id="path5098"
         inkscape:connector-curvature="0" />
    </g>
    <g
       id="g5100"
       transform="matrix(0.35277777,0,0,-0.35277777,115.98374,159.1672)">
      <path
         d="M 0,0 V 50.046 H 9.708 V 8.376 H 21.475 V 0 Z"
         style="fill:#2c2a2a;fill-opacity:1;fill-rule:nonzero;stroke:none"
         id="path5102"
         inkscape:connector-curvature="0" />
    </g>
    <g
       id="g5104"
       transform="matrix(0.35277777,0,0,-0.35277777,110.50305,155.15559)">
      <path
         d="m 0,0 c 0,-2.177 -1.781,-3.958 -3.958,-3.958 -2.177,0 -3.959,1.781 -3.959,3.958 v 27.36 c 0,2.178 1.782,3.959 3.959,3.959 C -1.781,31.319 0,29.538 0,27.36 Z m 6.035,35.83 c -2.152,2.193 -5.551,3.335 -10.079,3.397 -4.422,-0.062 -7.756,-1.204 -9.909,-3.397 -2.153,-2.194 -3.246,-5.363 -3.246,-9.42 V 1.739 c 0,-2.008 0.255,-3.852 0.758,-5.482 0.495,-1.609 1.259,-3.059 2.268,-4.311 0.983,-1.22 2.346,-2.181 4.051,-2.859 1.591,-0.633 3.492,-0.954 5.65,-0.954 0.194,0 0.39,0.003 0.635,0.008 0.187,-0.005 0.373,-0.008 0.556,-0.008 2.049,0 3.895,0.321 5.487,0.955 1.703,0.676 3.066,1.638 4.05,2.858 1.009,1.252 1.772,2.702 2.268,4.31 0.503,1.633 0.758,3.478 0.758,5.483 V 26.41 c 0,4.056 -1.092,7.226 -3.247,9.42"
         style="fill:#2c2a2a;fill-opacity:1;fill-rule:nonzero;stroke:none"
         id="path5106"
         inkscape:connector-curvature="0" />
    </g>
    <g
       id="g5108"
       transform="matrix(0.35277777,0,0,-0.35277777,131.08704,155.15559)">
      <path
         d="m 0,0 c 0,-2.177 -1.781,-3.958 -3.958,-3.958 -2.177,0 -3.959,1.781 -3.959,3.958 v 27.36 c 0,2.178 1.782,3.959 3.959,3.959 C -1.781,31.319 0,29.538 0,27.36 Z m 6.035,35.83 c -2.152,2.193 -5.551,3.335 -10.079,3.397 -4.422,-0.062 -7.756,-1.204 -9.909,-3.397 -2.153,-2.194 -3.246,-5.363 -3.246,-9.42 V 1.739 c 0,-2.008 0.255,-3.852 0.758,-5.482 0.495,-1.609 1.259,-3.059 2.268,-4.311 0.983,-1.22 2.346,-2.181 4.051,-2.859 1.591,-0.633 3.492,-0.954 5.65,-0.954 0.194,0 0.39,0.003 0.635,0.008 0.187,-0.005 0.373,-0.008 0.556,-0.008 2.049,0 3.895,0.321 5.487,0.955 1.703,0.676 3.066,1.638 4.05,2.858 1.009,1.252 1.772,2.702 2.268,4.31 0.503,1.633 0.758,3.478 0.758,5.483 V 26.41 c 0,4.056 -1.092,7.226 -3.247,9.42"
         style="fill:#2c2a2a;fill-opacity:1;fill-rule:nonzero;stroke:none"
         id="path5110"
         inkscape:connector-curvature="0" />
    </g>
    <g
       id="g5112"
       transform="matrix(0.35277777,0,0,-0.35277777,138.24052,159.1672)">
      <path
         d="m 0,0 v 41.801 h -6.793 v 8.245 H 16.502 V 41.801 H 9.708 V 0 Z"
         style="fill:#cd5029;fill-opacity:1;fill-rule:nonzero;stroke:none"
         id="path5114"
         inkscape:connector-curvature="0" />
    </g>
    <g
       id="g5116"
       transform="matrix(0.35277777,0,0,-0.35277777,161.4532,144.1339)">
      <path
         d="m 0,0 c -0.25,0 -0.694,0.046 -1.329,0 h -0.805 v -35.009 c 0,0 1.603,0.019 1.937,0 0.376,-0.024 0.681,0 0.912,0 3.61,0 4.149,2.361 4.149,3.717 v 25.549 c 0,2.116 -0.36,3.57 -1.098,4.443 C 2.998,-0.395 1.731,0 0,0 M -11.908,-42.614 V 7.432 H 2.99 c 3.993,0 6.92,-1.003 8.701,-2.98 1.805,-2.005 2.732,-4.825 2.752,-8.38 l 0.129,-24.182 c 0,-4.95 -0.958,-8.661 -2.849,-11.027 -1.844,-2.307 -4.914,-3.477 -9.123,-3.477 z"
         style="fill:#cd5029;fill-opacity:1;fill-rule:nonzero;stroke:none"
         id="path5118"
         inkscape:connector-curvature="0" />
    </g>
    <g
       id="g5120"
       transform="matrix(0.35277777,0,0,-0.35277777,151.61242,155.15559)">
      <path
         d="m 0,0 c 0,-2.177 -1.781,-3.958 -3.958,-3.958 -2.177,0 -3.959,1.781 -3.959,3.958 v 27.36 c 0,2.178 1.782,3.959 3.959,3.959 C -1.781,31.319 0,29.538 0,27.36 Z m 6.035,35.83 c -2.152,2.193 -5.551,3.335 -10.079,3.397 -4.422,-0.062 -7.756,-1.204 -9.909,-3.397 -2.153,-2.194 -3.246,-5.363 -3.246,-9.42 V 1.739 c 0,-2.008 0.255,-3.852 0.758,-5.482 0.495,-1.609 1.259,-3.059 2.268,-4.311 0.983,-1.22 2.346,-2.181 4.051,-2.859 1.591,-0.633 3.492,-0.954 5.65,-0.954 0.194,0 0.39,0.003 0.635,0.008 0.187,-0.005 0.373,-0.008 0.556,-0.008 2.049,0 3.895,0.321 5.487,0.955 1.703,0.676 3.066,1.638 4.05,2.858 1.009,1.252 1.772,2.702 2.268,4.31 0.503,1.633 0.758,3.478 0.758,5.483 V 26.41 c 0,4.056 -1.092,7.226 -3.247,9.42"
         style="fill:#cd5029;fill-opacity:1;fill-rule:nonzero;stroke:none"
         id="path5122"
         inkscape:connector-curvature="0" />
    </g>
    <g
       id="g5124"
       transform="matrix(0.35277777,0,0,-0.35277777,174.7447,155.15559)">
      <path
         d="m 0,0 c 0,-2.177 -1.781,-3.958 -3.958,-3.958 -2.177,0 -3.959,1.781 -3.959,3.958 v 27.36 c 0,2.178 1.782,3.959 3.959,3.959 C -1.781,31.319 0,29.538 0,27.36 Z m 6.035,35.83 c -2.152,2.193 -5.551,3.335 -10.079,3.397 -4.422,-0.062 -7.756,-1.204 -9.909,-3.397 -2.153,-2.194 -3.246,-5.363 -3.246,-9.42 V 1.739 c 0,-2.008 0.255,-3.852 0.758,-5.482 0.495,-1.609 1.259,-3.059 2.268,-4.311 0.983,-1.22 2.346,-2.181 4.051,-2.859 1.591,-0.633 3.492,-0.954 5.65,-0.954 0.194,0 0.39,0.003 0.635,0.008 0.187,-0.005 0.373,-0.008 0.556,-0.008 2.049,0 3.895,0.321 5.487,0.955 1.703,0.676 3.066,1.638 4.05,2.858 1.009,1.252 1.772,2.702 2.268,4.31 0.503,1.633 0.758,3.478 0.758,5.483 V 26.41 c 0,4.056 -1.092,7.226 -3.247,9.42"
         style="fill:#cd5029;fill-opacity:1;fill-rule:nonzero;stroke:none"
         id="path5126"
         inkscape:connector-curvature="0" />
    </g>
    <g
       id="g5128"
       transform="matrix(0.35277777,0,0,-0.35277777,104.68331,163.1918)">
      <path
         d="m 0,0 c 0.218,0.233 0.477,0.419 0.775,0.559 0.297,0.14 0.617,0.21 0.959,0.21 0.212,0 0.417,-0.03 0.615,-0.091 C 2.547,0.616 2.736,0.53 2.913,0.42 3.092,0.312 3.254,0.185 3.401,0.041 3.548,-0.102 3.676,-0.256 3.786,-0.42 L 5.13,0.123 C 4.966,0.418 4.764,0.686 4.524,0.929 4.285,1.171 4.02,1.38 3.73,1.554 3.439,1.729 3.125,1.864 2.785,1.96 2.447,2.055 2.096,2.104 1.734,2.104 1.2,2.104 0.698,2.001 0.226,1.796 -0.247,1.59 -0.658,1.312 -1.011,0.96 -1.364,0.607 -1.642,0.196 -1.848,-0.276 c -0.205,-0.472 -0.306,-0.976 -0.306,-1.51 0,-0.532 0.101,-1.036 0.306,-1.508 0.206,-0.472 0.484,-0.884 0.837,-1.236 0.353,-0.353 0.764,-0.632 1.237,-0.836 0.472,-0.205 0.974,-0.308 1.508,-0.308 0.362,0 0.713,0.049 1.051,0.144 0.34,0.095 0.654,0.231 0.945,0.405 0.29,0.175 0.555,0.382 0.794,0.626 0.24,0.243 0.442,0.515 0.606,0.815 L 3.786,-3.139 C 3.676,-3.303 3.548,-3.459 3.401,-3.606 3.254,-3.754 3.092,-3.882 2.913,-3.992 2.736,-4.1 2.547,-4.186 2.349,-4.248 2.151,-4.309 1.946,-4.341 1.734,-4.341 c -0.342,0 -0.662,0.072 -0.959,0.212 -0.298,0.14 -0.557,0.326 -0.775,0.559 -0.219,0.232 -0.394,0.502 -0.523,0.81 -0.131,0.308 -0.196,0.633 -0.196,0.974 0,0.336 0.065,0.66 0.196,0.97 C -0.394,-0.505 -0.219,-0.233 0,0"
         style="fill:#2c2a2a;fill-opacity:1;fill-rule:nonzero;stroke:none"
         id="path5130"
         inkscape:connector-curvature="0" />
    </g>
    <g
       id="g5132"
       transform="matrix(0.35277777,0,0,-0.35277777,108.9224,164.16169)">
      <path
         d="m 0,0 c -0.13,-0.308 -0.305,-0.58 -0.527,-0.816 -0.222,-0.236 -0.482,-0.424 -0.779,-0.564 -0.297,-0.14 -0.616,-0.211 -0.957,-0.211 -0.341,0 -0.661,0.071 -0.958,0.211 -0.296,0.14 -0.555,0.328 -0.777,0.564 C -4.22,-0.58 -4.396,-0.308 -4.526,0 -4.655,0.308 -4.72,0.632 -4.72,0.974 c 0,0.336 0.065,0.658 0.194,0.97 0.13,0.311 0.306,0.583 0.528,0.816 0.222,0.232 0.481,0.419 0.777,0.559 0.297,0.14 0.617,0.21 0.958,0.21 0.341,0 0.66,-0.07 0.957,-0.21 C -1.009,3.179 -0.749,2.992 -0.527,2.76 -0.305,2.527 -0.13,2.255 0,1.944 0.13,1.632 0.194,1.31 0.194,0.974 0.194,0.632 0.13,0.308 0,0 M 0.486,3.73 C 0.135,4.082 -0.278,4.361 -0.749,4.565 -1.221,4.772 -1.728,4.873 -2.268,4.873 -2.802,4.873 -3.304,4.772 -3.776,4.565 -4.248,4.361 -4.661,4.082 -5.014,3.73 -5.365,3.377 -5.644,2.963 -5.849,2.488 -6.055,2.012 -6.157,1.508 -6.157,0.974 c 0,-0.54 0.102,-1.047 0.308,-1.519 0.205,-0.471 0.484,-0.884 0.835,-1.235 0.353,-0.353 0.766,-0.632 1.238,-0.837 0.472,-0.205 0.974,-0.308 1.508,-0.308 0.54,0 1.047,0.103 1.519,0.308 0.471,0.205 0.884,0.484 1.235,0.837 0.353,0.351 0.632,0.764 0.837,1.235 0.205,0.472 0.308,0.979 0.308,1.519 0,0.534 -0.103,1.038 -0.308,1.514 C 1.118,2.963 0.839,3.377 0.486,3.73"
         style="fill:#2c2a2a;fill-opacity:1;fill-rule:nonzero;stroke:none"
         id="path5134"
         inkscape:connector-curvature="0" />
    </g>
    <g
       id="g5136"
       transform="matrix(0.35277777,0,0,-0.35277777,109.63536,162.94186)">
      <path
         d="M 0,0 H 2.154 V -6.239 H 3.591 V 0 H 5.735 V 1.272 H 0 Z"
         style="fill:#2c2a2a;fill-opacity:1;fill-rule:nonzero;stroke:none"
         id="path5138"
         inkscape:connector-curvature="0" />
    </g>
    <path
       d="m 112.07817,165.14287 h 0.50694 v -2.64618 h -0.50694 z"
       style="fill:#2c2a2a;fill-opacity:1;fill-rule:nonzero;stroke:none;stroke-width:0.35277775"
       id="path5140"
       inkscape:connector-curvature="0" />
    <g
       id="g5142"
       transform="matrix(0.35277777,0,0,-0.35277777,113.13538,162.9638)">
      <path
         d="m 0,0 h 3.878 l -4.197,-6.013 v -0.164 h 6.567 v 1.334 H 2.206 L 6.392,1.15 V 1.324 H 0 Z"
         style="fill:#2c2a2a;fill-opacity:1;fill-rule:nonzero;stroke:none"
         id="path5144"
         inkscape:connector-curvature="0" />
    </g>
    <g
       id="g5146"
       transform="matrix(0.35277777,0,0,-0.35277777,116.46937,164.28478)">
      <path
         d="M 0,0 1.077,2.267 2.145,0 Z m 1.006,5.069 -3.837,-7.501 h 1.559 l 0.574,1.18 h 3.54 l 0.585,-1.18 h 1.56 L 1.15,5.069 Z"
         style="fill:#2c2a2a;fill-opacity:1;fill-rule:nonzero;stroke:none"
         id="path5148"
         inkscape:connector-curvature="0" />
    </g>
    <g
       id="g5150"
       transform="matrix(0.35277777,0,0,-0.35277777,124.28449,163.1918)">
      <path
         d="m 0,0 c 0.218,0.233 0.477,0.419 0.775,0.559 0.297,0.14 0.617,0.21 0.959,0.21 0.212,0 0.417,-0.03 0.615,-0.091 C 2.547,0.616 2.736,0.53 2.913,0.42 3.092,0.312 3.254,0.185 3.401,0.041 3.548,-0.102 3.676,-0.256 3.786,-0.42 L 5.13,0.123 C 4.966,0.418 4.764,0.686 4.524,0.929 4.285,1.171 4.02,1.38 3.73,1.554 3.439,1.729 3.125,1.864 2.785,1.96 2.447,2.055 2.096,2.104 1.734,2.104 1.2,2.104 0.698,2.001 0.226,1.796 -0.247,1.59 -0.658,1.312 -1.011,0.96 -1.364,0.607 -1.642,0.196 -1.848,-0.276 c -0.205,-0.472 -0.306,-0.976 -0.306,-1.51 0,-0.532 0.101,-1.036 0.306,-1.508 0.206,-0.472 0.484,-0.884 0.837,-1.236 0.353,-0.353 0.764,-0.632 1.237,-0.836 0.472,-0.205 0.974,-0.308 1.508,-0.308 0.362,0 0.713,0.049 1.051,0.144 0.34,0.095 0.654,0.231 0.945,0.405 0.29,0.175 0.555,0.382 0.794,0.626 0.24,0.243 0.442,0.515 0.606,0.815 L 3.786,-3.139 C 3.676,-3.303 3.548,-3.459 3.401,-3.606 3.254,-3.754 3.092,-3.882 2.913,-3.992 2.736,-4.1 2.547,-4.186 2.349,-4.248 2.151,-4.309 1.946,-4.341 1.734,-4.341 c -0.342,0 -0.662,0.072 -0.959,0.212 -0.298,0.14 -0.557,0.326 -0.775,0.559 -0.219,0.232 -0.394,0.502 -0.523,0.81 -0.131,0.308 -0.196,0.633 -0.196,0.974 0,0.336 0.065,0.66 0.196,0.97 C -0.394,-0.505 -0.219,-0.233 0,0"
         style="fill:#2c2a2a;fill-opacity:1;fill-rule:nonzero;stroke:none"
         id="path5152"
         inkscape:connector-curvature="0" />
    </g>
    <g
       id="g5154"
       transform="matrix(0.35277777,0,0,-0.35277777,128.52312,164.16169)">
      <path
         d="m 0,0 c -0.13,-0.308 -0.305,-0.58 -0.527,-0.816 -0.222,-0.236 -0.482,-0.424 -0.779,-0.564 -0.297,-0.14 -0.616,-0.211 -0.957,-0.211 -0.341,0 -0.661,0.071 -0.958,0.211 -0.296,0.14 -0.555,0.328 -0.777,0.564 C -4.22,-0.58 -4.396,-0.308 -4.526,0 -4.655,0.308 -4.72,0.632 -4.72,0.974 c 0,0.336 0.065,0.658 0.194,0.97 0.13,0.311 0.306,0.583 0.528,0.816 0.222,0.232 0.481,0.419 0.777,0.559 0.297,0.14 0.617,0.21 0.958,0.21 0.341,0 0.66,-0.07 0.957,-0.21 C -1.009,3.179 -0.749,2.992 -0.527,2.76 -0.305,2.527 -0.13,2.255 0,1.944 0.13,1.632 0.194,1.31 0.194,0.974 0.194,0.632 0.13,0.308 0,0 M 0.486,3.73 C 0.135,4.082 -0.278,4.361 -0.749,4.565 -1.221,4.772 -1.728,4.873 -2.268,4.873 -2.802,4.873 -3.304,4.772 -3.776,4.565 -4.248,4.361 -4.661,4.082 -5.013,3.73 -5.365,3.377 -5.644,2.963 -5.849,2.488 -6.055,2.012 -6.157,1.508 -6.157,0.974 c 0,-0.54 0.102,-1.047 0.308,-1.519 0.205,-0.471 0.484,-0.884 0.836,-1.235 0.352,-0.353 0.765,-0.632 1.237,-0.837 0.472,-0.205 0.974,-0.308 1.508,-0.308 0.54,0 1.047,0.103 1.519,0.308 0.471,0.205 0.884,0.484 1.235,0.837 0.353,0.351 0.632,0.764 0.837,1.235 0.205,0.472 0.308,0.979 0.308,1.519 0,0.534 -0.103,1.038 -0.308,1.514 C 1.118,2.963 0.839,3.377 0.486,3.73"
         style="fill:#2c2a2a;fill-opacity:1;fill-rule:nonzero;stroke:none"
         id="path5156"
         inkscape:connector-curvature="0" />
    </g>
    <g
       id="g5158"
       transform="matrix(0.35277777,0,0,-0.35277777,130.87974,164.02411)">
      <path
         d="M 0,0 -3.684,4.33 H -3.776 V -3.171 H -2.34 V 0.625 L 0,-2.197 2.349,0.625 V -3.171 H 3.786 V 4.33 H 3.693 Z"
         style="fill:#2c2a2a;fill-opacity:1;fill-rule:nonzero;stroke:none"
         id="path5160"
         inkscape:connector-curvature="0" />
    </g>
    <g
       id="g5162"
       transform="matrix(0.35277777,0,0,-0.35277777,134.38724,163.60818)">
      <path
         d="M 0,0 C -0.048,-0.157 -0.122,-0.297 -0.221,-0.42 -0.32,-0.543 -0.448,-0.641 -0.605,-0.712 -0.763,-0.784 -0.948,-0.821 -1.159,-0.821 h -1.909 v 2.71 h 1.754 c 0.226,0 0.424,-0.041 0.596,-0.123 C -0.547,1.684 -0.403,1.577 -0.287,1.447 -0.171,1.318 -0.082,1.168 -0.021,1.001 0.041,0.833 0.071,0.664 0.071,0.493 0.071,0.323 0.048,0.157 0,0 m 1.323,-0.533 c 0.124,0.315 0.185,0.657 0.185,1.026 0,0.37 -0.07,0.716 -0.21,1.042 C 1.158,1.86 0.968,2.141 0.728,2.38 0.489,2.621 0.206,2.81 -0.118,2.95 -0.443,3.09 -0.79,3.16 -1.159,3.16 h -3.346 v -7.51 h 1.437 v 2.236 h 1.672 c 0.479,0 0.902,0.068 1.268,0.201 0.366,0.134 0.669,0.318 0.908,0.554 0.239,0.235 0.42,0.512 0.543,0.826"
         style="fill:#2c2a2a;fill-opacity:1;fill-rule:nonzero;stroke:none"
         id="path5164"
         inkscape:connector-curvature="0" />
    </g>
    <g
       id="g5166"
       transform="matrix(0.35277777,0,0,-0.35277777,135.60704,164.28478)">
      <path
         d="M 0,0 1.077,2.267 2.145,0 Z m 1.006,5.069 -3.837,-7.501 h 1.559 l 0.574,1.18 h 3.54 l 0.585,-1.18 h 1.56 L 1.15,5.069 Z"
         style="fill:#2c2a2a;fill-opacity:1;fill-rule:nonzero;stroke:none"
         id="path5168"
         inkscape:connector-curvature="0" />
    </g>
    <g
       id="g5170"
       transform="matrix(0.35277777,0,0,-0.35277777,138.8823,163.82317)">
      <path
         d="m 0,0 c -0.14,-0.052 -0.275,-0.078 -0.404,-0.078 h -1.974 v 2.576 h 1.974 C -0.152,2.498 0.049,2.451 0.2,2.354 0.349,2.259 0.465,2.143 0.547,2.005 0.629,1.869 0.683,1.725 0.711,1.574 0.738,1.424 0.752,1.294 0.752,1.184 0.752,0.973 0.715,0.788 0.644,0.63 0.572,0.473 0.482,0.341 0.373,0.235 0.264,0.13 0.14,0.05 0,0 M 1.762,-0.303 C 2.046,0.12 2.188,0.617 2.188,1.184 2.188,1.561 2.124,1.907 1.997,2.226 1.872,2.544 1.695,2.818 1.468,3.047 1.242,3.275 0.97,3.454 0.652,3.581 0.333,3.708 -0.019,3.77 -0.402,3.77 h -3.413 v -7.511 h 1.437 v 2.392 h 1.421 c 0.287,-0.412 0.574,-0.815 0.859,-1.211 0.287,-0.397 0.58,-0.791 0.88,-1.181 h 1.714 c -0.616,0.849 -1.239,1.69 -1.871,2.525 0.473,0.184 0.851,0.489 1.137,0.913"
         style="fill:#2c2a2a;fill-opacity:1;fill-rule:nonzero;stroke:none"
         id="path5172"
         inkscape:connector-curvature="0" />
    </g>
    <g
       id="g5174"
       transform="matrix(0.35277777,0,0,-0.35277777,140.83372,164.28478)">
      <path
         d="M 0,0 1.077,2.267 2.145,0 Z m 1.006,5.069 -3.837,-7.501 h 1.559 l 0.574,1.18 h 3.54 l 0.585,-1.18 h 1.56 L 1.15,5.069 Z"
         style="fill:#2c2a2a;fill-opacity:1;fill-rule:nonzero;stroke:none"
         id="path5176"
         inkscape:connector-curvature="0" />
    </g>
    <g
       id="g5178"
       transform="matrix(0.35277777,0,0,-0.35277777,149.06911,164.28478)">
      <path
         d="M 0,0 1.077,2.267 2.145,0 Z m 1.006,5.069 -3.837,-7.501 h 1.559 l 0.574,1.18 h 3.54 l 0.585,-1.18 h 1.56 L 1.15,5.069 Z"
         style="fill:#2c2a2a;fill-opacity:1;fill-rule:nonzero;stroke:none"
         id="path5180"
         inkscape:connector-curvature="0" />
    </g>
    <g
       id="g5182"
       transform="matrix(0.35277777,0,0,-0.35277777,152.95333,163.64039)">
      <path
         d="M 0,0 H -3.704 V 3.252 H -5.14 v -7.511 h 1.436 v 2.986 H 0 V -4.259 H 1.437 V 3.252 H 0 Z"
         style="fill:#2c2a2a;fill-opacity:1;fill-rule:nonzero;stroke:none"
         id="path5184"
         inkscape:connector-curvature="0" />
    </g>
    <g
       id="g5186"
       transform="matrix(0.35277777,0,0,-0.35277777,156.07379,164.16169)">
      <path
         d="m 0,0 c -0.13,-0.308 -0.305,-0.58 -0.527,-0.816 -0.222,-0.236 -0.482,-0.424 -0.779,-0.564 -0.297,-0.14 -0.616,-0.211 -0.957,-0.211 -0.341,0 -0.661,0.071 -0.958,0.211 -0.296,0.14 -0.555,0.328 -0.777,0.564 C -4.22,-0.58 -4.396,-0.308 -4.526,0 -4.655,0.308 -4.72,0.632 -4.72,0.974 c 0,0.336 0.065,0.658 0.194,0.97 0.13,0.311 0.306,0.583 0.528,0.816 0.222,0.232 0.481,0.419 0.777,0.559 0.297,0.14 0.617,0.21 0.958,0.21 0.341,0 0.66,-0.07 0.957,-0.21 C -1.009,3.179 -0.749,2.992 -0.527,2.76 -0.305,2.527 -0.13,2.255 0,1.944 0.13,1.632 0.194,1.31 0.194,0.974 0.194,0.632 0.13,0.308 0,0 M 0.486,3.73 C 0.135,4.082 -0.278,4.361 -0.749,4.565 -1.221,4.772 -1.728,4.873 -2.268,4.873 -2.802,4.873 -3.304,4.772 -3.776,4.565 -4.248,4.361 -4.661,4.082 -5.013,3.73 -5.365,3.377 -5.644,2.963 -5.849,2.488 -6.055,2.012 -6.157,1.508 -6.157,0.974 c 0,-0.54 0.102,-1.047 0.308,-1.519 0.205,-0.471 0.484,-0.884 0.836,-1.235 0.352,-0.353 0.765,-0.632 1.237,-0.837 0.472,-0.205 0.974,-0.308 1.508,-0.308 0.54,0 1.047,0.103 1.519,0.308 0.471,0.205 0.884,0.484 1.235,0.837 0.353,0.351 0.632,0.764 0.837,1.235 0.205,0.472 0.308,0.979 0.308,1.519 0,0.534 -0.103,1.038 -0.308,1.514 C 1.118,2.963 0.839,3.377 0.486,3.73"
         style="fill:#2c2a2a;fill-opacity:1;fill-rule:nonzero;stroke:none"
         id="path5188"
         inkscape:connector-curvature="0" />
    </g>
    <g
       id="g5190"
       transform="matrix(0.35277777,0,0,-0.35277777,158.44351,163.82317)">
      <path
         d="m 0,0 c -0.14,-0.052 -0.275,-0.078 -0.404,-0.078 h -1.974 v 2.576 h 1.974 C -0.152,2.498 0.049,2.451 0.2,2.354 0.349,2.259 0.465,2.143 0.547,2.005 0.629,1.869 0.683,1.725 0.711,1.574 0.738,1.424 0.752,1.294 0.752,1.184 0.752,0.973 0.715,0.788 0.644,0.63 0.572,0.473 0.482,0.341 0.373,0.235 0.264,0.13 0.14,0.05 0,0 M 1.762,-0.303 C 2.046,0.12 2.188,0.617 2.188,1.184 2.188,1.561 2.124,1.907 1.997,2.226 1.872,2.544 1.695,2.818 1.468,3.047 1.242,3.275 0.97,3.454 0.652,3.581 0.333,3.708 -0.019,3.77 -0.402,3.77 h -3.413 v -7.511 h 1.437 v 2.392 h 1.421 c 0.287,-0.412 0.574,-0.815 0.859,-1.211 0.287,-0.397 0.58,-0.791 0.88,-1.181 h 1.714 c -0.616,0.849 -1.239,1.69 -1.871,2.525 0.473,0.184 0.851,0.489 1.137,0.913"
         style="fill:#2c2a2a;fill-opacity:1;fill-rule:nonzero;stroke:none"
         id="path5192"
         inkscape:connector-curvature="0" />
    </g>
    <g
       id="g5194"
       transform="matrix(0.35277777,0,0,-0.35277777,161.05008,163.82317)">
      <path
         d="m 0,0 c -0.14,-0.052 -0.275,-0.078 -0.404,-0.078 h -1.974 v 2.576 h 1.974 C -0.152,2.498 0.049,2.451 0.2,2.354 0.349,2.259 0.465,2.143 0.547,2.005 0.629,1.869 0.683,1.725 0.711,1.574 0.738,1.424 0.752,1.294 0.752,1.184 0.752,0.973 0.715,0.788 0.644,0.63 0.572,0.473 0.482,0.341 0.373,0.235 0.264,0.13 0.14,0.05 0,0 M 1.762,-0.303 C 2.046,0.12 2.188,0.617 2.188,1.184 2.188,1.561 2.124,1.907 1.997,2.226 1.872,2.544 1.695,2.818 1.468,3.047 1.242,3.275 0.97,3.454 0.652,3.581 0.333,3.708 -0.019,3.77 -0.402,3.77 h -3.413 v -7.511 h 1.437 v 2.392 h 1.421 c 0.287,-0.412 0.574,-0.815 0.859,-1.211 0.287,-0.397 0.58,-0.791 0.88,-1.181 h 1.714 c -0.616,0.849 -1.239,1.69 -1.871,2.525 0.473,0.184 0.851,0.489 1.137,0.913"
         style="fill:#2c2a2a;fill-opacity:1;fill-rule:nonzero;stroke:none"
         id="path5196"
         inkscape:connector-curvature="0" />
    </g>
    <g
       id="g5198"
       transform="matrix(0.35277777,0,0,-0.35277777,163.002,164.28478)">
      <path
         d="M 0,0 1.077,2.267 2.145,0 Z M 1.15,5.069 H 1.006 l -3.837,-7.501 h 1.559 l 0.574,1.18 h 3.54 l 0.585,-1.18 h 1.56 z"
         style="fill:#2c2a2a;fill-opacity:1;fill-rule:nonzero;stroke:none"
         id="path5200"
         inkscape:connector-curvature="0" />
    </g>
    <g
       id="g5202"
       transform="matrix(0.35277777,0,0,-0.35277777,146.16162,163.78475)">
      <path
         d="m 0,0 c 0,-1.469 -1.191,-2.66 -2.66,-2.66 -1.469,0 -2.66,1.191 -2.66,2.66 0,1.469 1.191,2.66 2.66,2.66 C -1.191,2.66 0,1.469 0,0"
         style="fill:#2c2a2a;fill-opacity:1;fill-rule:nonzero;stroke:none"
         id="path5204"
         inkscape:connector-curvature="0" />
    </g>
    <g
       id="g5206"
       transform="matrix(0.35277777,0,0,-0.35277777,121.54412,163.78475)">
      <path
         d="m 0,0 c 0,-1.469 -1.191,-2.66 -2.66,-2.66 -1.469,0 -2.66,1.191 -2.66,2.66 0,1.469 1.191,2.66 2.66,2.66 C -1.191,2.66 0,1.469 0,0"
         style="fill:#2c2a2a;fill-opacity:1;fill-rule:nonzero;stroke:none"
         id="path5208"
         inkscape:connector-curvature="0" />
    </g>
  </g>
</svg>
